<?xml version="1.0" encoding="UTF-8"?>
<svg version="1.1" xmlns="http://www.w3.org/2000/svg" width="600" height="87">
<path d="M0 0 C0.94552734 -0.03287109 1.89105469 -0.06574219 2.86523438 -0.09960938 C9.66275718 -0.15245231 9.66275718 -0.15245231 13.07421875 2.4453125 C14.86352055 6.37254797 14.88521124 9.4954062 14.6875 13.75 C14.66945312 14.49056641 14.65140625 15.23113281 14.6328125 15.99414062 C14.58597337 17.8091571 14.51423789 19.62350166 14.4375 21.4375 C13.4475 21.4375 12.4575 21.4375 11.4375 21.4375 C11.21835937 20.68984375 10.99921875 19.9421875 10.7734375 19.171875 C9.29740968 14.58778859 8.19520014 11.19520014 4.75 7.75 C0.45837058 6.04954306 -3.01120635 5.6463253 -7.5625 6.4375 C-11.67217278 8.34012629 -13.22213697 9.87377373 -15.5625 13.75 C-16.8083372 18.34402466 -16.6311802 20.14690404 -14.5625 24.4375 C-9.2103313 30.400957 -2.06479302 34.83569336 4.4375 39.4375 C5.85327477 38.25325674 5.85327477 38.25325674 5.5 34.875 C5.479375 33.740625 5.45875 32.60625 5.4375 31.4375 C4.2928125 31.0353125 4.2928125 31.0353125 3.125 30.625 C0.56369116 29.49325888 -0.75942938 28.52526599 -2.5625 26.4375 C-0.63285936 24.50785936 2.68475758 25.17519527 5.25 25.125 C7.11591797 25.06892578 7.11591797 25.06892578 9.01953125 25.01171875 C13.09316725 25.51917741 13.95258752 26.2604262 16.4375 29.4375 C16.95507812 32.09130859 16.95507812 32.09130859 16.96875 35.0859375 C16.97648437 36.71789063 16.97648437 36.71789063 16.984375 38.3828125 C16.96890625 39.51460937 16.9534375 40.64640625 16.9375 41.8125 C16.95296875 42.9365625 16.9684375 44.060625 16.984375 45.21875 C16.95467257 51.50081315 16.86137713 55.77319476 12.4375 60.4375 C11.4475 60.7675 10.4575 61.0975 9.4375 61.4375 C9.42332031 62.19933594 9.40914062 62.96117187 9.39453125 63.74609375 C9.01248294 72.01692345 7.60377786 77.95559503 1.890625 84.1015625 C-2.52805635 87.60131454 -7.20412101 87.90945337 -12.6875 88 C-13.70904175 88.02235718 -13.70904175 88.02235718 -14.7512207 88.04516602 C-20.75534114 87.92170862 -24.31108979 85.76999913 -28.40625 81.52734375 C-30.66775181 77.43983203 -30.26938482 72.94555788 -29.5625 68.4375 C-27.14199999 64.80674998 -25.79245247 63.71936411 -21.5625 62.75 C-18.5625 63.4375 -18.5625 63.4375 -15.625 66.0625 C-13.5625 69.4375 -13.5625 69.4375 -13.4375 72.4375 C-14.8728489 76.26509708 -16.78735509 78.4488824 -19.5625 81.4375 C-15.83670911 83.92136059 -13.97538598 83.8179212 -9.5625 83.4375 C-5.44189242 81.65814673 -3.2682211 79.60704047 -1.5625 75.4375 C-1.70212084 71.26331838 -1.93618913 69.1254513 -4.78515625 65.99609375 C-5.72230469 65.29613281 -6.65945312 64.59617187 -7.625 63.875 C-8.62015625 63.11316406 -9.6153125 62.35132813 -10.640625 61.56640625 C-12.37808981 60.30047267 -14.11709629 59.03664384 -15.859375 57.77734375 C-21.17372029 53.9151742 -26.42615939 49.84652183 -28.5625 43.4375 C-29.04031157 37.00681531 -28.25035091 30.66474789 -27.3125 24.3125 C-27.20292969 23.45785156 -27.09335937 22.60320313 -26.98046875 21.72265625 C-26.00993318 15.07193356 -24.15951342 8.96369058 -18.625 4.625 C-12.50438805 0.25313432 -7.33481256 0.04518365 0 0 Z M-19.5625 38.4375 C-19.2325 39.0975 -18.9025 39.7575 -18.5625 40.4375 C-17.9025 40.1075 -17.2425 39.7775 -16.5625 39.4375 C-17.5525 39.1075 -18.5425 38.7775 -19.5625 38.4375 Z M-15.5625 41.4375 C-15.2325 42.0975 -14.9025 42.7575 -14.5625 43.4375 C-13.9025 43.1075 -13.2425 42.7775 -12.5625 42.4375 C-13.5525 42.1075 -14.5425 41.7775 -15.5625 41.4375 Z M-11.5625 44.4375 C-11.2325 45.0975 -10.9025 45.7575 -10.5625 46.4375 C-9.9025 46.1075 -9.2425 45.7775 -8.5625 45.4375 C-9.5525 45.1075 -10.5425 44.7775 -11.5625 44.4375 Z M-8.5625 46.4375 C-7.5725 47.9225 -7.5725 47.9225 -6.5625 49.4375 C-5.9025 49.1075 -5.2425 48.7775 -4.5625 48.4375 C-5.8825 47.7775 -7.2025 47.1175 -8.5625 46.4375 Z M-4.5625 49.4375 C-3.5725 50.9225 -3.5725 50.9225 -2.5625 52.4375 C-1.9025 52.1075 -1.2425 51.7775 -0.5625 51.4375 C-1.8825 50.7775 -3.2025 50.1175 -4.5625 49.4375 Z M-0.5625 52.4375 C-0.2325 53.0975 0.0975 53.7575 0.4375 54.4375 C1.0975 54.1075 1.7575 53.7775 2.4375 53.4375 C1.4475 53.1075 0.4575 52.7775 -0.5625 52.4375 Z " fill="#020202" />
<path d="M0 0 C5 0 5 0 6.59765625 1.51953125 C7.08105469 2.27621094 7.56445312 3.03289063 8.0625 3.8125 C8.64257812 4.70324219 9.22265625 5.59398437 9.8203125 6.51171875 C10.54727779 7.67422738 11.27378175 8.83702455 12 10 C13.03809789 11.63212435 14.07724352 13.26358256 15.1171875 14.89453125 C18.10260719 19.58155313 21.04850206 24.29086845 24 29 C24.33 19.43 24.66 9.86 25 0 C26.65 0 28.3 0 30 0 C30 13.53 30 27.06 30 41 C25 41 25 41 23.3671875 39.41015625 C22.87476563 38.63542969 22.38234375 37.86070313 21.875 37.0625 C21.00101563 35.71865234 21.00101563 35.71865234 20.109375 34.34765625 C19.41328125 33.24292969 18.7171875 32.13820312 18 31 C17.04914314 29.53888603 16.09585285 28.07935387 15.140625 26.62109375 C13.17119585 23.60698036 11.20721975 20.5896088 9.2578125 17.5625 C8.8467627 16.92441406 8.43571289 16.28632812 8.01220703 15.62890625 C7 14 7 14 6 12 C5.67 21.57 5.34 31.14 5 41 C3.35 41 1.7 41 0 41 C0 27.47 0 13.94 0 0 Z " fill="#020202" />
<path d="M0 0 C2.82959657 2.62255292 4.18732768 4.78427227 5.5625 8.375 C5.5625 9.365 5.5625 10.355 5.5625 11.375 C3.5825 11.375 1.6025 11.375 -0.4375 11.375 C-1.0975 9.395 -1.7575 7.415 -2.4375 5.375 C-3.85183206 5.1513663 -5.26917618 4.94673524 -6.6875 4.75 C-7.87085937 4.57597656 -7.87085937 4.57597656 -9.078125 4.3984375 C-11.7981779 4.37141711 -13.17235839 4.90165568 -15.4375 6.375 C-17.37690303 10.25380605 -16.66591185 15.04614136 -16.6875 19.3125 C-16.708125 20.32763672 -16.72875 21.34277344 -16.75 22.38867188 C-16.75515625 23.36255859 -16.7603125 24.33644531 -16.765625 25.33984375 C-16.7749707 26.2330835 -16.78431641 27.12632324 -16.79394531 28.04663086 C-16.3673266 30.83338611 -15.66741988 31.7032346 -13.4375 33.375 C-11.26254919 33.84807456 -11.26254919 33.84807456 -8.9375 33.75 C-8.1640625 33.75773437 -7.390625 33.76546875 -6.59375 33.7734375 C-3.90948908 33.27743277 -3.0721125 32.53308358 -1.4375 30.375 C-0.69363932 28.06511685 -0.01559297 25.73184056 0.5625 23.375 C-2.7375 23.375 -6.0375 23.375 -9.4375 23.375 C-9.4375 21.725 -9.4375 20.075 -9.4375 18.375 C-4.4875 18.375 0.4625 18.375 5.5625 18.375 C6.09821429 31.5 6.09821429 31.5 3.75 35.0625 C0.04064256 38.98382072 -2.77422903 39.95097457 -7.95703125 40.390625 C-12.10887492 40.36447165 -16.03108247 39.83048644 -19.4375 37.375 C-23.56436864 31.69755837 -24.03457568 26.1433688 -23.875 19.3125 C-23.88208984 18.45333984 -23.88917969 17.59417969 -23.89648438 16.70898438 C-23.84172404 11.19503954 -23.03892573 7.2534683 -20.4375 2.375 C-14.84616871 -2.86687308 -6.71898478 -3.17624735 0 0 Z " fill="#020202" />
<path d="M0 0 C8.91 0 17.82 0 27 0 C27 1.65 27 3.3 27 5 C20.07 5 13.14 5 6 5 C6 9.29 6 13.58 6 18 C11.94 18 17.88 18 24 18 C24 19.65 24 21.3 24 23 C18.06 23 12.12 23 6 23 C6 26.96 6 30.92 6 35 C12.6 35 19.2 35 26 35 C26.33 36.65 26.66 38.3 27 40 C25.25454395 41.74545605 22.83875783 41.1302316 20.46875 41.1328125 C19.34855469 41.13410156 18.22835937 41.13539062 17.07421875 41.13671875 C15.89472656 41.13285156 14.71523438 41.12898438 13.5 41.125 C11.73076172 41.13080078 11.73076172 41.13080078 9.92578125 41.13671875 C8.24548828 41.13478516 8.24548828 41.13478516 6.53125 41.1328125 C5.49548828 41.13168457 4.45972656 41.13055664 3.39257812 41.12939453 C1 41 1 41 0 40 C-0.08868299 37.04294679 -0.11520296 34.10934944 -0.09765625 31.15234375 C-0.0962413 30.2659169 -0.09482635 29.37949005 -0.09336853 28.46620178 C-0.08775215 25.62326746 -0.07519691 22.78041069 -0.0625 19.9375 C-0.05748711 18.01497509 -0.05292384 16.09244896 -0.04882812 14.16992188 C-0.03862648 9.44656036 -0.01905437 4.72336742 0 0 Z " fill="#020202" />
<path d="M0 0 C8.91 0 17.82 0 27 0 C27 1.65 27 3.3 27 5 C24.12469919 5.9584336 22.70950069 6.06656387 19.76953125 5.87890625 C18.96708984 5.83056641 18.16464844 5.78222656 17.33789062 5.73242188 C16.08782227 5.64831055 16.08782227 5.64831055 14.8125 5.5625 C13.5450293 5.48418945 13.5450293 5.48418945 12.25195312 5.40429688 C10.16763701 5.27476311 8.08376818 5.13806823 6 5 C6 9.29 6 13.58 6 18 C11.61 18 17.22 18 23 18 C23.33 19.65 23.66 21.3 24 23 C23 24 23 24 19.18359375 24.09765625 C17.60153318 24.09098089 16.01948841 24.07901875 14.4375 24.0625 C13.63119141 24.05798828 12.82488281 24.05347656 11.99414062 24.04882812 C9.99606244 24.03700518 7.99802217 24.01906914 6 24 C6 27.96 6 31.92 6 36 C12.93 36 19.86 36 27 36 C27 37.65 27 39.3 27 41 C18.09 41 9.18 41 0 41 C0 27.47 0 13.94 0 0 Z " fill="#020202" />
<path d="M0 0 C1.65 0 3.3 0 5 0 C5 5.94 5 11.88 5 18 C10.94 18 16.88 18 23 18 C22.96042519 12.45026879 22.96042519 12.45026879 22.90991211 6.90063477 C22.90276909 4.93354026 22.94968107 2.96646379 23 1 C23.33 0.67 23.66 0.34 24 0 C25.65 0 27.3 0 29 0 C29 13.53 29 27.06 29 41 C27.35 41 25.7 41 24 41 C23 40 23 40 22.90234375 36.40234375 C22.90808728 34.91402745 22.92110109 33.42573704 22.9375 31.9375 C22.958125 29.318125 22.97875 26.69875 23 24 C17.06 24 11.12 24 5 24 C5 29.61 5 35.22 5 41 C3.35 41 1.7 41 0 41 C0 27.47 0 13.94 0 0 Z " fill="#020202" />
<path d="M0 0 C1.2065625 0.0309375 1.2065625 0.0309375 2.4375 0.0625 C6.12202417 6.89641506 8.79324615 14.03894783 11.43896484 21.31860352 C12.19304404 23.39023075 12.95738069 25.45787685 13.72265625 27.52539062 C14.2063429 28.84612956 14.68943757 30.16708549 15.171875 31.48828125 C15.60725586 32.67848877 16.04263672 33.86869629 16.49121094 35.0949707 C17.4375 38.0625 17.4375 38.0625 17.4375 41.0625 C15.4575 41.0625 13.4775 41.0625 11.4375 41.0625 C10.4475 38.4225 9.4575 35.7825 8.4375 33.0625 C2.8275 32.7325 -2.7825 32.4025 -8.5625 32.0625 C-9.5525 35.0325 -10.5425 38.0025 -11.5625 41.0625 C-13.5425 41.0625 -15.5225 41.0625 -17.5625 41.0625 C-15.33159044 33.08088053 -12.55736593 25.31544354 -9.69140625 17.5456543 C-8.92794099 15.47406251 -8.17075071 13.40024745 -7.4140625 11.32617188 C-6.9300553 10.00767743 -6.44569377 8.68931298 -5.9609375 7.37109375 C-5.30617432 5.58916626 -5.30617432 5.58916626 -4.63818359 3.77124023 C-3.17128068 0.07734831 -3.17128068 0.07734831 0 0 Z M-0.5625 8.0625 C-2.5425 14.0025 -4.5225 19.9425 -6.5625 26.0625 C-2.2725 26.0625 2.0175 26.0625 6.4375 26.0625 C4.6552429 19.95190424 2.74428315 13.9942281 0.4375 8.0625 C0.1075 8.0625 -0.2225 8.0625 -0.5625 8.0625 Z " fill="#020202" />
<path d="M0 0 C8.58 0 17.16 0 26 0 C26.33 1.65 26.66 3.3 27 5 C24.23434618 5.92188461 22.61716298 6.11785222 19.76953125 6.09765625 C18.96708984 6.09443359 18.16464844 6.09121094 17.33789062 6.08789062 C16.08782227 6.07532227 16.08782227 6.07532227 14.8125 6.0625 C13.96751953 6.05798828 13.12253906 6.05347656 12.25195312 6.04882812 C10.16793845 6.03705403 8.08396023 6.0191189 6 6 C5.67 9.96 5.34 13.92 5 18 C10.94 18 16.88 18 23 18 C23.33 19.65 23.66 21.3 24 23 C23 24 23 24 21.23413086 24.11352539 C20.48526611 24.10828857 19.73640137 24.10305176 18.96484375 24.09765625 C18.15595703 24.09443359 17.34707031 24.09121094 16.51367188 24.08789062 C15.66353516 24.07951172 14.81339844 24.07113281 13.9375 24.0625 C13.08349609 24.05798828 12.22949219 24.05347656 11.34960938 24.04882812 C9.23304337 24.03700373 7.11651315 24.01906769 5 24 C5 27.96 5 31.92 5 36 C11.93 36 18.86 36 26 36 C26.33 37.65 26.66 39.3 27 41 C18.09 41 9.18 41 0 41 C0 27.47 0 13.94 0 0 Z " fill="#020202" />
<path d="M0 0 C-0.66 1.65 -1.32 3.3 -2 5 C-2.79664063 4.76023437 -3.59328125 4.52046875 -4.4140625 4.2734375 C-12.28660835 1.87117774 -12.28660835 1.87117774 -20 4 C-20.33 6.31 -20.66 8.62 -21 11 C-20.47043701 11.16604736 -19.94087402 11.33209473 -19.39526367 11.50317383 C-16.98954224 12.26341661 -14.58859512 13.03777595 -12.1875 13.8125 C-11.35412109 14.07353516 -10.52074219 14.33457031 -9.66210938 14.60351562 C-8.85966797 14.86455078 -8.05722656 15.12558594 -7.23046875 15.39453125 C-6.49207764 15.63018799 -5.75368652 15.86584473 -4.99291992 16.10864258 C-2.77621979 17.10008839 -1.54776186 18.1414402 0 20 C1.2333744 24.16849321 1.47673336 27.84580345 -0.1875 31.875 C-3.33546604 35.56571881 -6.24330254 37.74538496 -11.19921875 38.203125 C-17.19472469 38.31607017 -21.60339522 37.69830239 -27 35 C-28.5625 32.9375 -28.5625 32.9375 -29 31 C-28.67 30.34 -28.34 29.68 -28 29 C-25.2463485 29.4859385 -22.84746266 30.06240164 -20.25 31.125 C-16.0321798 32.26056698 -12.23803132 32.05103177 -8 31 C-5.65026182 29.10244856 -5.65026182 29.10244856 -5.875 25.875 C-5.91625 24.92625 -5.9575 23.9775 -6 23 C-6.54527344 22.81824219 -7.09054687 22.63648437 -7.65234375 22.44921875 C-9.23906423 21.92031192 -10.82494474 21.38888115 -12.41015625 20.85546875 C-14.09934145 20.2975026 -15.79460358 19.75751534 -17.49609375 19.23828125 C-18.67365234 18.87283203 -18.67365234 18.87283203 -19.875 18.5 C-20.59429687 18.2834375 -21.31359375 18.066875 -22.0546875 17.84375 C-24.29057331 16.8739682 -25.47425463 15.89339485 -27 14 C-28.12627703 9.81668533 -28.12604697 7.42015656 -26.875 3.25 C-24.56529663 -0.75348584 -22.49532309 -2.21200323 -18.14453125 -3.5859375 C-11.79780457 -4.81135285 -5.45825193 -3.3036788 0 0 Z " fill="#020202" />
<path d="M0 0 C-0.66 1.32 -1.32 2.64 -2 4 C-2.639375 3.855625 -3.27875 3.71125 -3.9375 3.5625 C-6.47851227 3.09578346 -9.00406107 2.6671351 -11.5625 2.3125 C-12.30628906 2.20550781 -13.05007813 2.09851563 -13.81640625 1.98828125 C-16.44679269 2.00239781 -17.83717805 2.51514873 -20 4 C-20.81584568 7.05908413 -20.81584568 7.05908413 -21 10 C-16.3453569 12.64182446 -11.80633432 13.89606841 -6.5859375 15.05859375 C-2.90935416 16.39704781 -0.74368603 18.51262794 1 22 C1.38683172 26.02304984 1.20643672 28.53327349 -0.4375 32.25 C-4.45397046 36.56035854 -8.71877924 37.87995534 -14.5625 38.09375 C-20.34319745 37.74126845 -24.21969689 36.22150862 -29 33 C-28.67 31.68 -28.34 30.36 -28 29 C-24 29 -24 29 -22.09765625 29.984375 C-19.42989246 31.27602972 -17.38935557 31.26606452 -14.4375 31.25 C-13.01244141 31.25773437 -13.01244141 31.25773437 -11.55859375 31.265625 C-8.75900727 31.17576075 -8.75900727 31.17576075 -6 29 C-5.7497843 25.91634129 -5.7497843 25.91634129 -6 23 C-10.02976918 21.16032277 -13.90723052 19.71658747 -18.1875 18.5625 C-25.02449217 16.50203661 -25.02449217 16.50203661 -27 13 C-27.77369842 8.14380781 -27.74693132 4.3278779 -25.3125 0 C-17.5240194 -6.73598322 -8.22533309 -4.87427146 0 0 Z " fill="#020202" />
<path d="M0 0 C-0.66 1.65 -1.32 3.3 -2 5 C-2.79664063 4.76023437 -3.59328125 4.52046875 -4.4140625 4.2734375 C-12.28660835 1.87117774 -12.28660835 1.87117774 -20 4 C-20.73334429 7.97754128 -20.73334429 7.97754128 -21 12 C-19.90300781 12.24234375 -18.80601562 12.4846875 -17.67578125 12.734375 C-16.22119109 13.0722153 -14.76677281 13.41079625 -13.3125 13.75 C-12.2306543 13.98589844 -12.2306543 13.98589844 -11.12695312 14.2265625 C-6.53768812 15.31625099 -3.47165757 16.62791196 0 20 C1.53214888 23.06429776 1.22938548 25.6165642 1 29 C-0.67624261 32.68773373 -2.57253594 34.85783496 -6 37 C-11.70505211 38.90168404 -17.80715011 38.6649623 -23.5 36.75 C-27 35 -27 35 -28.5 32.8125 C-28.665 32.214375 -28.83 31.61625 -29 31 C-28.34 30.34 -27.68 29.68 -27 29 C-24.57626498 29.34624786 -22.57317875 30.17866936 -20.3125 31.125 C-16.06441027 32.24713691 -12.2642747 32.05754013 -8 31 C-5.65026182 29.10244856 -5.65026182 29.10244856 -5.875 25.875 C-5.91625 24.92625 -5.9575 23.9775 -6 23 C-6.54527344 22.81824219 -7.09054687 22.63648437 -7.65234375 22.44921875 C-9.23945702 21.92018099 -10.82531071 21.38735546 -12.41015625 20.8515625 C-14.09639203 20.29711393 -15.79177666 19.7695298 -17.49609375 19.2734375 C-18.28113281 19.03882812 -19.06617188 18.80421875 -19.875 18.5625 C-20.59429688 18.35753906 -21.31359375 18.15257813 -22.0546875 17.94140625 C-24.6072632 16.70612363 -25.5891713 15.4494756 -27 13 C-27.66423135 9.59581431 -27.58671847 6.41514431 -27 3 C-20.46794112 -6.22173018 -8.89971016 -5.38666668 0 0 Z " fill="#020202" />
<path d="M0 0 C1.65 0 3.3 0 5 0 C5 5.94 5 11.88 5 18 C11.27 18 17.54 18 24 18 C24 12.06 24 6.12 24 0 C25.65 0 27.3 0 29 0 C29 13.2 29 26.4 29 40 C26.525 40.495 26.525 40.495 24 41 C24 35.06 24 29.12 24 23 C17.73 23 11.46 23 5 23 C5 28.61 5 34.22 5 40 C3.02 40.495 3.02 40.495 1 41 C0 40 0 40 -0.11352539 36.21459961 C-0.11336622 34.52717271 -0.10766917 32.83974095 -0.09765625 31.15234375 C-0.0962413 30.2659169 -0.09482635 29.37949005 -0.09336853 28.46620178 C-0.08775215 25.62326746 -0.07519691 22.78041069 -0.0625 19.9375 C-0.05748711 18.01497509 -0.05292384 16.09244896 -0.04882812 14.16992188 C-0.03777741 9.44658451 -0.02050183 4.72330542 0 0 Z " fill="#010101" />
<path d="M0 0 C3.26540553 2.55991668 4.70572733 4.10702463 5.8359375 8.17578125 C5.8565625 9.04203125 5.8771875 9.90828125 5.8984375 10.80078125 C3.7109375 11.17578125 3.7109375 11.17578125 0.8984375 10.80078125 C-0.78888527 8.81817699 -2.45522307 6.81754705 -4.1015625 4.80078125 C-7.16660937 3.5747625 -8.60141934 3.67283765 -11.7890625 4.48828125 C-14.62674913 6.09886015 -15.01928301 6.73754376 -16.1015625 9.80078125 C-16.41704251 12.78333001 -16.42609862 15.74128849 -16.4140625 18.73828125 C-16.43017578 19.53685547 -16.44628906 20.33542969 -16.46289062 21.15820312 C-16.46674842 25.81456683 -16.24256141 29.09396729 -13.1015625 32.80078125 C-9.20412171 33.95557852 -7.05676383 34.20408848 -3.2890625 32.61328125 C-1.07389835 30.77785953 -0.11206262 29.46482701 0.8984375 26.80078125 C2.5484375 26.80078125 4.1984375 26.80078125 5.8984375 26.80078125 C5.62533814 30.71520538 5.14851537 32.50339135 2.5859375 35.55078125 C-1.6667686 39.11118636 -4.28647446 40.27729957 -10.0078125 40.1171875 C-14.66783885 39.4129671 -18.05135816 37.13104008 -20.9765625 33.42578125 C-24.5894373 24.99574004 -24.30368483 14.13734035 -21.015625 5.640625 C-19.29439934 2.17610669 -17.17266934 0.44344535 -13.9140625 -1.51171875 C-9.00892119 -2.71075329 -4.45309841 -2.54108032 0 0 Z " fill="#020202" />
<path d="M0 0 C9.9 0 19.8 0 30 0 C29.67 1.65 29.34 3.3 29 5 C25.37 5 21.74 5 18 5 C18 16.55 18 28.1 18 40 C15.525 40.495 15.525 40.495 13 41 C12 40 12 40 11.88647461 36.67358398 C11.88663371 35.19774444 11.89232686 33.72189931 11.90234375 32.24609375 C11.9037587 31.47064713 11.90517365 30.6952005 11.90663147 29.89625549 C11.91224655 27.40996506 11.92480154 24.9237634 11.9375 22.4375 C11.94251306 20.75586067 11.9470763 19.07421994 11.95117188 17.39257812 C11.96222087 13.26168434 11.97949555 9.13085724 12 5 C8.37 5 4.74 5 1 5 C0.67 3.35 0.34 1.7 0 0 Z " fill="#020202" />
<path d="M0 0 C1.20970459 0.00523682 2.41940918 0.01047363 3.66577148 0.01586914 C4.97094727 0.0190918 6.27612305 0.02231445 7.62084961 0.02563477 C9.00952213 0.03399138 10.39819401 0.04245634 11.78686523 0.05102539 C13.17944179 0.05603873 14.57202005 0.06060193 15.96459961 0.06469727 C19.38456394 0.07653105 22.80444367 0.09301659 26.22436523 0.11352539 C26.22436523 1.76352539 26.22436523 3.41352539 26.22436523 5.11352539 C22.26436523 5.11352539 18.30436523 5.11352539 14.22436523 5.11352539 C14.22436523 16.66352539 14.22436523 28.21352539 14.22436523 40.11352539 C11.74936523 40.60852539 11.74936523 40.60852539 9.22436523 41.11352539 C8.22436523 40.11352539 8.22436523 40.11352539 8.11083984 36.78710938 C8.11099894 35.31126983 8.11669209 33.8354247 8.12670898 32.35961914 C8.12812393 31.58417252 8.12953888 30.80872589 8.1309967 30.00978088 C8.13661178 27.52349045 8.14916677 25.03728879 8.16186523 22.55102539 C8.1668783 20.86938606 8.17144154 19.18774533 8.17553711 17.50610352 C8.1865861 13.37520973 8.20386079 9.24438263 8.22436523 5.11352539 C4.59436523 5.11352539 0.96436523 5.11352539 -2.77563477 5.11352539 C-3.10563477 3.79352539 -3.43563477 2.47352539 -3.77563477 1.11352539 C-2.77563477 0.11352539 -2.77563477 0.11352539 0 0 Z " fill="#020202" />
<path d="M0 0 C1.98 0 3.96 0 6 0 C6 13.2 6 26.4 6 40 C3.525 40.495 3.525 40.495 1 41 C0 40 0 40 -0.11352539 36.21459961 C-0.11336622 34.52717271 -0.10766917 32.83974095 -0.09765625 31.15234375 C-0.0962413 30.2659169 -0.09482635 29.37949005 -0.09336853 28.46620178 C-0.08775215 25.62326746 -0.07519691 22.78041069 -0.0625 19.9375 C-0.05748711 18.01497509 -0.05292384 16.09244896 -0.04882812 14.16992188 C-0.03777741 9.44658451 -0.02050183 4.72330542 0 0 Z " fill="#040404" />
<path d="M0 0 C1.65 0 3.3 0 5 0 C6 1 6 1 6.3125 4.25 C5.95508785 8.53894577 5.04783405 10.04180813 2 13 C1.34 13 0.68 13 0 13 C0 8.71 0 4.42 0 0 Z " fill="#020202" />
<path d="M0 0 C1.65 0 3.3 0 5 0 C4.67 7.92 4.34 15.84 4 24 C3.67 24 3.34 24 3 24 C3 16.74 3 9.48 3 2 C2.01 2 1.02 2 0 2 C0 1.34 0 0.68 0 0 Z " fill="#080808" />
</svg>
